<svg xmlns="http://www.w3.org/2000/svg" width="193" height="48"><g fill="none" fill-rule="evenodd"><rect width="185" height="40" x="4" y="4" fill="#FC4C02" rx="2"/><path fill="#FFF" d="m27 25.164 1.736.35q-.168 1.652-1.204 2.674t-2.674 1.022q-1.862 0-3.045-1.302t-1.183-3.892q0-2.408 1.239-3.717t2.975-1.309q1.526 0 2.576.959 1.05.96 1.232 2.527l-1.708.266q-.364-2.226-2.086-2.226-1.078 0-1.799.868t-.721 2.66q0 1.834.707 2.737t1.813.903q1.834 0 2.142-2.52m6.519 2.604q.825 0 1.337-.651.51-.651.51-1.827t-.51-1.827a1.62 1.62 0 0 0-1.337-.651q-.84 0-1.351.644-.51.644-.511 1.834 0 1.204.51 1.841.512.637 1.352.637m0 1.442q-1.499 0-2.471-1.036-.973-1.035-.973-2.884 0-1.82 1-2.87t2.444-1.05 2.429 1.05.987 2.87q0 1.848-.96 2.884-.959 1.035-2.456 1.036m5.245-.21v-7.42h1.54v.714h.027q.309-.391.854-.658a2.6 2.6 0 0 1 1.148-.266q1.233 0 1.94.735t.706 2.037V29h-1.581v-4.438q0-1.722-1.443-1.722-.727 0-1.161.42t-.434 1.134V29zm8.464 0v-7.42h1.54v.714h.028q.309-.391.854-.658a2.6 2.6 0 0 1 1.148-.266q1.233 0 1.94.735t.706 2.037V29h-1.582v-4.438q0-1.722-1.442-1.722-.727 0-1.162.42t-.434 1.134V29zm13.393-2.464 1.148.938q-1.078 1.736-3.08 1.736-1.54 0-2.513-1.071t-.973-2.849.966-2.849 2.45-1.071 2.429 1.064.945 2.856v.476h-5.18q.028.924.511 1.477t1.337.553q.405 0 .728-.112.322-.113.567-.336.245-.225.371-.392.126-.168.294-.42m-3.794-1.974h3.612q-.042-.784-.504-1.281t-1.316-.497q-.798 0-1.274.532t-.518 1.246m11.503 1.484 1.582.336q-.224 1.344-1.022 2.086t-2.114.742q-1.512 0-2.478-1.036-.966-1.035-.966-2.884 0-1.778.973-2.849.972-1.071 2.457-1.071 1.275 0 2.1.763t.966 1.981l-1.498.252q-.239-1.554-1.554-1.554-.855 0-1.358.651t-.504 1.827q0 1.176.49 1.827t1.372.651q1.302 0 1.554-1.722m3.69.476v-3.57H70.9V21.58h1.162v-1.82h1.513v1.82h1.861v1.372h-1.848v3.402q0 .616.19.861.189.245.776.245h.588V29h-.713q-1.345 0-1.877-.595-.531-.595-.532-1.883M81.992 29l-1.638-7.42h1.568l1.05 5.166H83l1.764-5.166h1.442l1.652 5.152h.028l1.19-5.152h1.54L88.838 29h-1.54l-1.806-5.572h-.028L83.518 29zm10.41 0v-7.42H94V29zm-.027-8.638V18.78h1.652v1.582zm4.32 6.16v-3.57h-1.12V21.58h1.162v-1.82h1.513v1.82h1.862v1.372h-1.849v3.402q0 .616.19.861.189.245.776.245h.588V29h-.713q-1.345 0-1.876-.595-.532-.595-.532-1.883M101.87 29V18.78h1.596v3.528h.028q.253-.378.826-.658.574-.28 1.162-.28 1.191 0 1.932.728.742.728.742 1.988V29h-1.582v-4.536q0-.727-.392-1.176t-1.134-.448q-.714 0-1.148.42-.435.42-.434 1.078V29zM160.016 18.724l-2.442 4.97-2.444-4.97h-3.591L157.574 31l6.03-12.276zm-19.849 4.34q0-.562-.385-.833-.383-.272-1.04-.272h-1.634v2.261h1.618q.673 0 1.056-.297.384-.299.385-.826zM149.175 18l6.034 12.276h-3.592l-2.442-4.97-2.44 4.97h-6.712l-2.115-3.3h-.8v3.3h-3.747V18.724h5.477q1.505 0 2.474.355.97.356 1.561.966.513.527.77 1.187.255.662.256 1.55v.035q0 1.27-.594 2.145-.591.875-1.617 1.386l1.947 2.93zm16.792 0-6.032 12.276h3.591l2.44-4.97 2.444 4.97H172zm-43.48 3.99h3.3v8.286h3.747V21.99h3.3v-3.266h-10.346zm-.134 3.07q.344.613.344 1.486v.033q0 .908-.353 1.634a3.5 3.5 0 0 1-.993 1.23q-.641.502-1.554.775-.912.274-2.049.274-1.712-.001-3.195-.487-1.48-.49-2.553-1.46l2.001-2.458a5.9 5.9 0 0 0 1.921 1.038q1.01.315 2.002.314.513 0 .737-.131.225-.134.224-.363v-.033q0-.251-.328-.414-.328-.165-1.226-.345a21 21 0 0 1-1.8-.464 6 6 0 0 1-1.505-.676 3.2 3.2 0 0 1-1.034-1.04q-.384-.628-.384-1.535v-.033q0-.826.312-1.536.311-.71.912-1.237.6-.528 1.491-.826.886-.297 2.041-.297 1.632 0 2.858.397 1.224.394 2.202 1.187l-1.825 2.608a5.6 5.6 0 0 0-1.69-.868 5.7 5.7 0 0 0-1.673-.273q-.416 0-.616.133a.4.4 0 0 0-.2.346v.033q-.001.232.304.398.305.165 1.184.346 1.073.197 1.955.477c.586.19 1.092.427 1.512.72q.634.436.978 1.048"/></g></svg>