<svg xmlns="http://www.w3.org/2000/svg" xmlns:vectornator="http://vectornator.io" xml:space="preserve" style="fill-rule:nonzero;clip-rule:evenodd;stroke-linecap:round;stroke-linejoin:round" viewBox="0 0 540 250"><g vectornator:layerName="Untitled" fill="none" stroke="#40fddc"><path d="M155.489 110.027v-9.635h45.392v9.635h-16.92v45.635H172.41v-45.635zM215.956 155.832v-55.269h37.243v9.634h-25.557v13.17h23.641v9.634h-23.641v13.197h25.665v9.634zM270.089 100.733H284.5l15.22 37.134h.648l15.221-37.134H330v55.269h-11.335v-35.973h-.458l-14.303 35.704h-7.719l-14.303-35.839h-.459v36.108h-11.334zM347.895 156.002v-55.269h21.806q6.288 0 10.714 2.402 4.425 2.375 6.747 6.611 2.347 4.21 2.347 9.716t-2.374 9.715q-2.376 4.183-6.882 6.558-4.48 2.348-10.849 2.348h-9.823v17.919zm11.499-27.349h7.934q5.02 0 7.475-2.564 2.483-2.59 2.483-6.693 0-4.13-2.483-6.639-2.456-2.537-7.529-2.537h-7.88zM455.302 128.302q0 9.04-3.427 15.382-3.4 6.342-9.257 9.689-5.856 3.32-13.197 3.319-7.367 0-13.223-3.346t-9.257-9.689q-3.4-6.369-3.4-15.355 0-9.04 3.4-15.383 3.4-6.342 9.257-9.661 5.856-3.347 13.223-3.347 7.341 0 13.197 3.347 5.856 3.32 9.257 9.661 3.427 6.342 3.427 15.383m-11.847 0q0-8.798-3.833-13.413-3.831-4.642-10.201-4.642-6.369 0-10.201 4.642-3.832 4.615-3.832 13.413 0 8.77 3.832 13.412t10.201 4.642q6.37 0 10.201-4.642 3.833-4.641 3.833-13.412M96.49 155.857v-11.333c4.281-.812 6.63-1.871 9.117-5.159 2.426-3.208 2.616-5.425 2.616-10.024H96.489V99.857h29v25.565q0 28.203-29 30.435"/></g></svg>