<svg xmlns="http://www.w3.org/2000/svg" fill="none" viewBox="0 0 540 250"><g transform="translate(112 56)"><mask id="a" width="315" height="138" x="0" y="0" fill="#000" maskUnits="userSpaceOnUse"><path fill="#40fddc" d="M0 0h315v138H0z"/><path d="M55.244 109.026q-4.107 0-6.916-2.374-2.593-2.374-2.593-6.045V74.271q0-7.988-3.674-11.441-3.458-3.454-8.644-3.454-5.403 0-9.077 3.454-3.458 3.454-4.322 7.987v28.927q0 3.67-2.81 6.26-2.593 2.375-6.483 2.375-4.106 0-6.916-2.375T1 99.96V51.604q0-3.453 2.593-5.828 2.81-2.59 7.132-2.59 3.457 0 5.835 1.942a8.6 8.6 0 0 1 3.242 4.533q5.835-7.555 17.72-7.555 12.103 0 19.667 7.124t7.564 22.666v29.143q0 3.455-2.81 5.829-2.593 2.158-6.7 2.158M111.458 109.026q-14.696 0-24.853-8.634-9.94-8.851-9.941-24.178 0-15.975 9.725-25.041 9.941-9.067 24.853-9.067 10.588 0 17.505 3.886 6.915 3.885 10.373 9.93t3.458 12.736q0 11.226-9.941 11.226H96.762q-1.728 0-1.729 2.158 0 4.965 5.403 7.988 5.619 2.805 12.535 2.806 4.322 0 8.644-1.08 4.322-1.294 7.564-3.67 2.161-1.51 4.538-1.51 3.242 0 5.403 2.374 2.377 2.374 2.377 5.613 0 3.885-4.106 7.34-3.89 3.237-11.454 5.181-7.347 1.942-14.479 1.942m11.238-41.663q.432 0 1.08-.216.865-.216.865-1.511 0-3.239-4.107-5.829-3.89-2.805-10.157-2.806-6.7 0-11.021 3.022-4.106 2.807-4.106 5.829 0 1.51 1.728 1.511zM185.69 109.026q-14.48 0-23.556-9.066-8.86-9.283-8.861-24.61 0-15.327 8.645-24.177 8.86-9.067 23.124-9.067 10.156 0 17.721 7.124.864-2.59 3.241-4.318t5.619-1.727q4.323 0 6.916 2.59 2.81 2.376 2.809 5.83v49.002q0 3.67-2.809 6.045-2.593 2.374-6.916 2.374-7.131 0-8.86-6.26-6.916 6.26-17.073 6.26m1.513-17.485q6.915 0 11.021-4.534 4.107-4.75 4.107-11.657 0-7.124-4.107-11.441-4.106-4.317-11.021-4.317-6.699 0-11.022 4.317-4.106 4.317-4.106 11.441 0 6.909 4.106 11.657 4.323 4.534 11.022 4.534M264.596 109.026q-9.293 0-15.344-5.396-6.051-5.397-6.051-16.623V63.693q0-2.159-2.161-2.159h-3.242q-3.89 0-5.835-2.374t-1.945-6.045q0-3.885 1.945-6.26 1.946-2.59 5.835-2.59h3.242q2.16 0 2.161-2.16V26.132q0-3.67 2.593-6.26t6.7-2.59 6.699 2.59q2.81 2.375 2.809 6.26v15.975q0 2.158 2.161 2.158h7.997q3.674 0 6.051 2.591 2.593 2.59 2.593 6.26t-2.593 6.045q-2.377 2.374-6.268 2.374h-7.78q-2.16 0-2.161 2.16v20.291q0 3.886 1.297 5.397 1.513 1.51 3.674 1.511.864 0 3.458-.432 2.593-.647 3.241-.647 3.459 0 5.835 2.59 2.378 2.59 2.378 6.26 0 2.807-1.729 5.181-1.513 2.376-4.971 3.454a42 42 0 0 1-5.403 1.296 31.5 31.5 0 0 1-5.186.431M314 130.74q0 2.807-1.945 4.533-1.729 1.727-4.754 1.727-2.81 0-4.539-1.727t-1.729-4.533V6.829q0-2.591 1.945-4.102Q304.923 1 307.733 1t4.538 1.727q1.73 1.511 1.729 4.102z"/></mask><path stroke="#40fddc" stroke-width="2" d="M55.244 109.026q-4.107 0-6.916-2.374-2.593-2.374-2.593-6.045V74.271q0-7.988-3.674-11.441-3.458-3.454-8.644-3.454-5.403 0-9.077 3.454-3.458 3.454-4.322 7.987v28.927q0 3.67-2.81 6.26-2.593 2.375-6.483 2.375-4.106 0-6.916-2.375T1 99.96V51.604q0-3.453 2.593-5.828 2.81-2.59 7.132-2.59 3.457 0 5.835 1.942a8.6 8.6 0 0 1 3.242 4.533q5.835-7.555 17.72-7.555 12.103 0 19.667 7.124t7.564 22.666v29.143q0 3.455-2.81 5.829-2.593 2.158-6.7 2.158ZM111.458 109.026q-14.696 0-24.853-8.634-9.94-8.851-9.941-24.178 0-15.975 9.725-25.041 9.941-9.067 24.853-9.067 10.588 0 17.505 3.886 6.915 3.885 10.373 9.93t3.458 12.736q0 11.226-9.941 11.226H96.762q-1.728 0-1.729 2.158 0 4.965 5.403 7.988 5.619 2.805 12.535 2.806 4.322 0 8.644-1.08 4.322-1.294 7.564-3.67 2.161-1.51 4.538-1.51 3.242 0 5.403 2.374 2.377 2.374 2.377 5.613 0 3.885-4.106 7.34-3.89 3.237-11.454 5.181-7.347 1.942-14.479 1.942Zm11.238-41.663q.432 0 1.08-.216.865-.216.865-1.511 0-3.239-4.107-5.829-3.89-2.805-10.157-2.806-6.7 0-11.021 3.022-4.106 2.807-4.106 5.829 0 1.51 1.728 1.511zM185.69 109.026q-14.48 0-23.556-9.066-8.86-9.283-8.861-24.61 0-15.327 8.645-24.177 8.86-9.067 23.124-9.067 10.156 0 17.721 7.124.864-2.59 3.241-4.318t5.619-1.727q4.323 0 6.916 2.59 2.81 2.376 2.809 5.83v49.002q0 3.67-2.809 6.045-2.593 2.374-6.916 2.374-7.131 0-8.86-6.26-6.916 6.26-17.073 6.26Zm1.513-17.485q6.915 0 11.021-4.534 4.107-4.75 4.107-11.657 0-7.124-4.107-11.441-4.106-4.317-11.021-4.317-6.699 0-11.022 4.317-4.106 4.317-4.106 11.441 0 6.909 4.106 11.657 4.323 4.534 11.022 4.534ZM264.596 109.026q-9.293 0-15.344-5.396-6.051-5.397-6.051-16.623V63.693q0-2.159-2.161-2.159h-3.242q-3.89 0-5.835-2.374t-1.945-6.045q0-3.885 1.945-6.26 1.946-2.59 5.835-2.59h3.242q2.16 0 2.161-2.16V26.132q0-3.67 2.593-6.26t6.7-2.59 6.699 2.59q2.81 2.375 2.809 6.26v15.975q0 2.158 2.161 2.158h7.997q3.674 0 6.051 2.591 2.593 2.59 2.593 6.26t-2.593 6.045q-2.377 2.374-6.268 2.374h-7.78q-2.16 0-2.161 2.16v20.291q0 3.886 1.297 5.397 1.513 1.51 3.674 1.511.864 0 3.458-.432 2.593-.647 3.241-.647 3.459 0 5.835 2.59 2.378 2.59 2.378 6.26 0 2.807-1.729 5.181-1.513 2.376-4.971 3.454a42 42 0 0 1-5.403 1.296 31.5 31.5 0 0 1-5.186.431ZM314 130.74q0 2.807-1.945 4.533-1.729 1.727-4.754 1.727-2.81 0-4.539-1.727t-1.729-4.533V6.829q0-2.591 1.945-4.102Q304.923 1 307.733 1t4.538 1.727q1.73 1.511 1.729 4.102z" mask="url(#a)"/></g></svg>