<svg xmlns="http://www.w3.org/2000/svg" xmlns:vectornator="http://vectornator.io" xml:space="preserve" style="fill-rule:nonzero;clip-rule:evenodd;stroke-linecap:round;stroke-linejoin:round" viewBox="0 0 540 250"><g vectornator:layerName="Untitled" fill="none" stroke="#40fddc"><path d="M129.549 95.305H103.98v65.126h11.736v-23.315h13.755c15 0 23.005-8.471 23.005-20.983 0-12.435-8.005-20.828-22.927-20.828m-.466 31.397h-13.367v-20.983h13.289c7.927 0 11.502 4.352 11.502 10.569.078 6.217-3.575 10.414-11.424 10.414M171.361 95.305h12.046v65.126h0-12.046 0zM232.368 149.24h-30.231v11.191h42.044V95.304h-11.813zM276.9 95.305h-11.891v65.126h42.123V149.24H276.9zM345.524 95.305l-22.849 65.126h11.969l4.196-12.512h25.88l4.197 12.512h12.434l-22.848-65.127zm-3.031 41.966 9.248-27.434 9.326 27.434zM447.333 115.511c0-10.492-7.072-20.206-22.616-20.206h-27.434v65.126h11.969v-24.636h14.455l10.803 24.636h12.901l-11.969-26.657c7.072-2.642 11.891-9.559 11.891-18.263m-22.46 9.637h-15.777v-19.429h15.621c6.684 0 10.725 4.585 10.725 9.792 0 6.139-3.808 9.637-10.569 9.637"/></g></svg>